<?xml version="1.0" standalone="no"?>
<!DOCTYPE svg PUBLIC "-//W3C//DTD SVG 20010904//EN"
 "http://www.w3.org/TR/2001/REC-SVG-20010904/DTD/svg10.dtd">
<svg version="1.0" xmlns="http://www.w3.org/2000/svg"
 width="300.000000pt" height="300.000000pt" viewBox="0 0 300.000000 300.000000"
 preserveAspectRatio="xMidYMid meet">
<metadata>
Created by potrace 1.10, written by Peter Selinger 2001-2011
</metadata>
<g transform="translate(0.000000,300.000000) scale(0.100000,-0.100000)"
fill="#000000" stroke="none">
<path d="M1452 2654 l-42 -45 32 -47 c40 -58 45 -119 12 -153 -30 -29 -105
-37 -140 -14 -23 15 -25 22 -21 58 2 23 8 51 11 62 5 16 -1 24 -33 41 l-39 21
-22 -38 -21 -39 35 -34 c48 -44 50 -94 7 -137 -60 -59 -151 -27 -151 53 0 34
-2 36 -35 40 -22 2 -35 0 -33 -6 2 -6 33 -65 71 -132 l67 -120 58 27 c176 86
440 83 599 -6 l42 -23 68 122 c37 66 69 126 71 132 2 6 -11 8 -33 6 -33 -4
-35 -6 -35 -41 0 -79 -92 -111 -151 -52 -43 43 -41 93 7 137 l35 34 -21 39
-22 38 -39 -21 c-32 -17 -38 -25 -33 -41 3 -11 9 -39 11 -62 4 -36 2 -43 -21
-58 -19 -13 -39 -16 -73 -12 -96 11 -118 87 -54 181 l31 45 -45 46 c-25 25
-47 45 -48 44 -1 0 -21 -20 -45 -45z m48 -61 l0 -58 -20 33 c-19 32 -20 34 -3
57 10 13 19 25 21 25 1 0 2 -26 2 -57z m13 -207 c11 -27 67 -48 118 -44 27 1
49 0 49 -3 0 -3 -10 -15 -23 -27 -22 -20 -30 -22 -113 -16 -105 7 -220 -11
-314 -50 -48 -19 -66 -22 -72 -13 -13 21 -9 27 21 27 33 0 92 37 105 66 8 17
16 19 71 16 65 -4 120 14 132 44 3 7 9 14 13 14 4 0 10 -7 13 -14z m228 -80
c30 -29 62 -46 88 -46 24 0 27 -12 8 -29 -10 -8 -31 -4 -83 16 -38 15 -71 28
-73 30 -6 4 21 53 29 53 4 0 18 -11 31 -24z"/>
<path d="M905 2226 c-23 -34 -5 -66 35 -66 51 0 63 65 14 84 -26 10 -33 7 -49
-18z"/>
<path d="M2025 2226 c-23 -34 -5 -66 35 -66 40 0 58 32 35 66 -8 13 -24 24
-35 24 -11 0 -27 -11 -35 -24z"/>
<path d="M1362 2165 c-100 -22 -204 -78 -282 -151 -88 -84 -136 -156 -174
-264 -26 -75 -29 -98 -29 -195 0 -91 5 -124 27 -191 66 -206 238 -365 451
-419 233 -59 500 39 650 240 111 149 150 378 93 555 -48 152 -182 308 -320
374 -132 63 -277 81 -416 51z m198 -30 c0 -8 5 -15 11 -15 5 0 7 5 3 11 -12
20 83 0 142 -29 30 -14 54 -32 54 -39 0 -15 61 -56 69 -47 3 3 -5 14 -19 25
-24 20 -24 20 -2 9 13 -6 28 -24 34 -40 5 -16 24 -40 42 -53 18 -14 44 -49 59
-77 25 -48 26 -54 12 -70 -19 -21 -19 -28 5 -73 31 -57 29 -127 -4 -169 -17
-23 -26 -47 -26 -72 0 -41 -29 -77 -88 -108 -33 -18 -36 -22 -46 -71 -4 -15
-14 -31 -24 -34 -9 -4 -32 -19 -50 -35 -19 -16 -44 -28 -61 -28 -16 0 -36 -9
-47 -21 -15 -17 -26 -20 -55 -15 -28 4 -43 1 -63 -15 -23 -18 -31 -20 -56 -9
-24 10 -33 9 -51 -3 -12 -9 -28 -13 -36 -10 -7 3 -22 -2 -33 -12 -21 -19 -41
-12 -93 31 -34 28 -44 29 -69 7 -18 -16 -21 -14 -71 35 -29 29 -57 52 -63 52
-32 0 -136 176 -112 191 7 5 7 8 -1 13 -6 4 -10 41 -10 89 0 93 7 140 19 132
4 -3 6 4 3 14 -6 25 15 91 29 91 6 0 9 3 5 6 -10 10 29 78 82 142 52 63 155
137 231 166 107 42 280 61 280 31z m450 -366 c9 -21 10 -33 2 -41 -10 -10 -11
-7 -28 55 -9 29 13 19 26 -14z m35 -109 c7 -31 1 -50 -16 -50 -5 0 -9 18 -9
40 0 47 16 53 25 10z m40 -73 c0 -26 -20 -25 -23 2 -3 16 1 22 10 19 7 -3 13
-12 13 -21z m-27 -63 c-5 -45 -24 -39 -20 7 3 26 8 37 14 31 5 -5 8 -22 6 -38z
m-48 7 c0 -30 -11 -51 -25 -51 -21 0 -26 16 -15 44 11 30 40 35 40 7z m51
-149 c-60 -197 -224 -352 -424 -401 -72 -17 -229 -15 -288 4 -62 21 -71 35
-22 35 22 0 44 5 51 12 9 9 16 8 29 -4 30 -28 74 -34 89 -13 12 16 18 17 39 7
38 -18 51 -15 90 19 19 17 35 26 35 20 0 -18 39 -12 60 9 19 19 19 23 6 42
-12 17 -13 23 -1 34 7 8 25 14 39 14 13 0 38 11 54 24 18 16 36 23 49 20 13
-4 31 4 49 19 27 23 28 28 17 56 -9 25 -9 31 2 31 20 0 56 33 59 55 2 11 -3
32 -10 46 -12 25 -11 27 27 48 21 12 39 19 39 15 0 -5 6 -2 13 5 21 21 20 -24
-2 -97z m-81 8 c0 -24 -37 -63 -51 -54 -6 4 -2 12 10 21 12 8 21 23 21 34 0
10 5 19 10 19 6 0 10 -9 10 -20z m-90 -45 c0 -28 -36 -53 -53 -36 -7 7 -5 18
7 35 21 33 46 34 46 1z m30 -72 c0 -9 -7 -25 -17 -35 -17 -19 -53 -25 -53 -8
0 6 9 10 20 10 13 0 22 9 26 25 7 28 24 34 24 8z m-110 -41 c0 -23 -19 -42
-41 -42 -29 0 -34 22 -9 42 28 23 50 23 50 0z m-730 -32 c11 0 11 -3 2 -12 -9
-9 -17 -6 -37 12 -14 13 -25 28 -25 33 0 6 10 1 23 -11 13 -12 30 -22 37 -22z
m625 -11 c10 -16 -26 -50 -49 -47 -32 5 -31 34 1 46 37 14 41 14 48 1z m-117
-51 c4 -21 -32 -41 -58 -33 -27 9 -25 34 3 45 30 12 51 8 55 -12z m-364 2 c14
-5 26 -14 26 -20 0 -18 -46 -11 -65 10 -16 17 -16 20 -2 20 9 0 27 -4 41 -10z
m-44 -44 c-5 -5 -20 -2 -34 8 -38 24 -32 36 8 17 20 -9 31 -20 26 -25z m293 9
c-4 -15 -76 -12 -81 3 -3 10 7 12 39 10 24 -2 43 -7 42 -13z m177 -14 c0 -10
-3 -21 -7 -24 -9 -9 -36 31 -28 43 9 14 35 0 35 -19z m58 -7 c-9 -9 -24 -14
-34 -12 -16 3 -14 6 11 19 35 18 45 15 23 -7z m-331 -19 c-9 -26 -87 -10 -87
19 0 10 10 10 45 2 25 -6 44 -15 42 -21z m-110 -12 c13 -3 20 -9 17 -14 -9
-15 -30 -10 -55 12 -21 18 -21 20 -4 14 11 -4 30 -10 42 -12z m343 2 c-14 -17
-65 -20 -75 -6 -5 9 8 12 74 19 11 2 11 -1 1 -13z m-120 -16 c0 -13 -32 -19
-51 -9 -27 15 -24 18 16 17 19 -1 35 -4 35 -8z"/>
<path d="M1690 2046 c0 -15 37 -46 54 -46 6 0 0 7 -12 16 -12 8 -22 22 -22 30
0 8 -4 14 -10 14 -5 0 -10 -6 -10 -14z"/>
<path d="M1796 1991 c-4 -5 -4 -15 -1 -23 7 -17 45 -42 45 -29 0 6 -4 13 -10
16 -5 3 -10 15 -10 26 0 20 -15 26 -24 10z"/>
<path d="M1727 1973 c-13 -12 -7 -40 11 -56 26 -24 39 -21 17 3 -10 11 -15 28
-12 40 5 20 -3 27 -16 13z"/>
<path d="M1623 1934 c-7 -19 7 -46 28 -53 12 -4 12 -2 0 12 -7 9 -11 26 -8 37
6 24 -11 27 -20 4z"/>
<path d="M1890 1892 c0 -20 39 -67 48 -58 3 3 -3 15 -13 26 -9 10 -15 26 -12
35 4 9 1 15 -8 15 -8 0 -15 -8 -15 -18z"/>
<path d="M1824 1886 c-6 -17 22 -76 37 -76 5 0 2 14 -6 31 -13 24 -14 34 -4
45 9 11 8 14 -5 14 -9 0 -19 -6 -22 -14z"/>
<path d="M1752 1868 c-7 -7 -12 -19 -12 -28 0 -18 37 -57 45 -48 3 3 -1 11
-10 18 -17 14 -21 50 -5 50 6 0 10 5 10 10 0 14 -13 13 -28 -2z"/>
<path d="M1657 1832 c-21 -23 -21 -33 -1 -58 15 -18 15 -18 9 10 -4 19 -1 34
11 47 9 11 13 19 7 19 -5 0 -17 -8 -26 -18z"/>
<path d="M1883 1773 c-8 -19 16 -64 37 -71 13 -5 13 -3 1 11 -8 11 -11 28 -7
47 4 23 2 30 -10 30 -8 0 -17 -7 -21 -17z"/>
<path d="M1807 1749 c-16 -22 -12 -52 9 -69 11 -10 12 -5 7 23 -3 20 -1 37 6
41 6 4 11 11 11 17 0 16 -18 10 -33 -12z"/>
<path d="M1712 1728 c-15 -15 -16 -68 -1 -68 6 0 9 6 6 13 -6 18 11 47 28 47
8 0 15 5 15 10 0 14 -33 13 -48 -2z"/>
<path d="M1588 1676 c-6 -14 -7 -33 -3 -43 7 -15 9 -13 14 12 4 18 16 35 31
42 l25 13 -28 0 c-19 0 -31 -7 -39 -24z"/>
<path d="M1925 1650 c-6 -20 9 -60 24 -60 5 0 6 11 3 25 -2 14 1 32 8 40 10
12 9 15 -8 15 -12 0 -23 -9 -27 -20z"/>
<path d="M1840 1631 c-7 -14 -7 -27 2 -45 16 -36 29 -32 21 6 -5 23 -2 34 12
45 18 12 18 13 -3 13 -12 0 -26 -9 -32 -19z"/>
<path d="M1740 1601 c-13 -25 -13 -58 0 -66 6 -3 10 5 10 19 0 15 11 33 26 45
l27 21 -26 0 c-16 0 -30 -8 -37 -19z"/>
<path d="M1637 1572 c-19 -21 -22 -57 -7 -67 6 -3 10 4 10 17 0 29 17 48 43
48 10 0 15 5 12 10 -10 16 -40 12 -58 -8z"/>
<path d="M1155 1551 c-3 -6 3 -9 12 -9 10 0 27 -3 38 -8 18 -7 18 -6 6 9 -15
18 -46 23 -56 8z"/>
<path d="M1526 1534 c-9 -8 -16 -27 -15 -42 l1 -27 10 28 c7 19 19 30 39 34
16 3 26 9 23 14 -8 14 -41 10 -58 -7z"/>
<path d="M1060 1521 c0 -5 9 -7 20 -4 12 3 22 -1 26 -11 3 -9 10 -16 15 -16 6
0 5 9 -1 20 -11 20 -60 29 -60 11z"/>
<path d="M1870 1516 c-6 -8 -10 -25 -8 -37 4 -30 28 -37 28 -8 0 12 7 31 17
41 15 17 15 18 -4 18 -11 0 -26 -7 -33 -14z"/>
<path d="M1400 1500 c-12 -12 -18 -25 -14 -31 4 -6 12 -2 21 10 16 23 43 27
61 9 9 -9 12 -9 12 0 0 12 -31 32 -49 32 -6 0 -20 -9 -31 -20z"/>
<path d="M997 1503 c-10 -10 -8 -25 2 -18 5 3 17 -5 25 -17 18 -25 22 -8 6 23
-11 20 -22 24 -33 12z"/>
<path d="M1780 1490 c-24 -24 -26 -53 -5 -70 13 -11 15 -8 15 19 0 24 6 34 25
43 13 6 22 15 19 19 -9 15 -33 10 -54 -11z"/>
<path d="M1292 1468 c-7 -7 -12 -21 -12 -31 0 -17 2 -17 19 4 16 21 22 22 45
11 30 -13 36 2 7 18 -26 13 -44 13 -59 -2z"/>
<path d="M1676 1454 c-9 -8 -16 -27 -16 -42 l1 -27 15 27 c8 15 26 31 39 34
14 3 22 10 19 15 -8 14 -41 10 -58 -7z"/>
<path d="M1198 1439 c-10 -6 -18 -17 -18 -26 0 -15 2 -15 18 0 17 15 20 15 41
0 17 -11 22 -12 19 -3 -8 24 -41 40 -60 29z"/>
<path d="M1573 1429 c-21 -8 -40 -45 -29 -57 4 -3 13 4 21 15 9 12 28 23 43
25 25 3 26 4 7 14 -12 7 -29 8 -42 3z"/>
<path d="M1102 1408 c-18 -18 -15 -27 8 -21 11 3 27 0 35 -7 20 -17 20 4 -1
24 -19 19 -26 20 -42 4z"/>
<path d="M1436 1378 c-20 -29 -9 -44 13 -17 15 19 20 20 40 10 29 -16 37 -9
16 13 -23 22 -51 20 -69 -6z"/>
<path d="M1027 1383 c-11 -10 -8 -25 4 -18 5 4 19 -1 30 -11 21 -19 24 -13 9
17 -11 19 -31 25 -43 12z"/>
<path d="M970 1363 c0 -5 12 -16 25 -26 27 -19 32 -12 11 16 -13 17 -36 24
-36 10z"/>
<path d="M1338 1359 c-10 -5 -18 -17 -18 -26 0 -13 3 -14 12 -5 7 7 21 12 33
12 12 0 26 -5 33 -12 9 -9 12 -9 12 -1 0 11 -38 43 -50 43 -3 0 -13 -5 -22
-11z"/>
<path d="M1718 1359 c-11 -6 -18 -22 -18 -41 l0 -30 29 31 c16 17 34 31 41 31
6 0 8 5 5 10 -8 13 -35 12 -57 -1z"/>
<path d="M1238 1329 c-10 -5 -18 -17 -18 -25 0 -11 4 -12 19 -2 15 9 25 9 45
0 32 -14 34 1 4 22 -26 19 -27 19 -50 5z"/>
<path d="M1603 1313 c-7 -2 -13 -16 -13 -29 0 -24 0 -24 20 -4 11 11 29 20 41
20 11 0 17 5 14 10 -6 10 -41 12 -62 3z"/>
<path d="M1140 1295 c-11 -13 -8 -15 14 -15 14 0 35 -9 46 -20 15 -15 20 -16
20 -6 0 14 -45 56 -60 56 -4 0 -13 -7 -20 -15z"/>
<path d="M1476 1274 c-25 -24 -19 -33 14 -21 23 9 35 9 50 -1 17 -10 20 -10
20 3 0 15 -30 35 -54 35 -8 0 -22 -7 -30 -16z"/>
<path d="M1075 1270 c-3 -5 0 -10 8 -10 7 0 23 -9 36 -21 30 -28 37 -19 10 14
-21 28 -43 35 -54 17z"/>
<path d="M1363 1253 c-7 -2 -13 -17 -13 -31 1 -23 2 -25 11 -9 12 20 49 23 67
5 8 -8 12 -9 12 -1 0 30 -43 50 -77 36z"/>
<path d="M1262 1208 c-19 -19 -14 -30 8 -23 13 4 31 0 45 -9 25 -16 32 -12 17
10 -6 10 -45 34 -54 34 -2 0 -9 -5 -16 -12z"/>
<path d="M774 2088 c-30 -14 -46 -48 -42 -89 4 -44 34 -50 77 -14 26 23 31 34
31 71 0 39 -2 44 -22 43 -13 0 -33 -5 -44 -11z m34 -25 c-13 -28 -44 -73 -50
-73 -16 0 -7 41 12 60 19 19 45 28 38 13z"/>
<path d="M2160 2057 c0 -48 24 -83 65 -93 34 -9 45 2 45 46 0 30 -6 43 -31 64
-17 14 -41 26 -55 26 -22 0 -24 -4 -24 -43z m63 -36 c20 -35 7 -41 -23 -11
-22 22 -29 70 -7 52 6 -6 20 -24 30 -41z"/>
<path d="M630 1971 c-53 -100 86 -192 171 -115 24 22 25 53 2 56 -32 2 -68 -3
-77 -13 -16 -15 -26 -10 -26 11 0 30 -28 80 -45 80 -8 0 -19 -9 -25 -19z m46
-71 c7 -32 6 -34 -9 -21 -9 7 -17 27 -17 44 0 40 17 24 26 -23z"/>
<path d="M2315 1960 c-8 -16 -15 -38 -15 -50 0 -24 1 -24 -38 -5 -37 19 -82
11 -82 -14 0 -24 40 -59 70 -62 48 -4 69 1 99 27 24 20 31 34 31 61 0 71 -37
96 -65 43z m-60 -82 c21 -9 35 -28 21 -28 -16 0 -56 21 -56 30 0 13 3 13 35
-2z"/>
<path d="M560 1821 c-17 -32 -12 -86 11 -114 58 -74 209 -38 209 49 0 21 -5
24 -34 24 -18 0 -45 -9 -59 -20 -32 -25 -34 -25 -41 3 -6 26 -50 77 -65 77 -6
0 -15 -9 -21 -19z m56 -62 c8 -17 14 -38 12 -47 -6 -29 -48 23 -48 59 0 35 13
31 36 -12z"/>
<path d="M2384 1813 c-13 -14 -27 -37 -30 -50 -7 -28 -9 -28 -41 -3 -14 11
-41 20 -59 20 -29 0 -34 -3 -34 -24 0 -87 151 -123 209 -49 23 28 28 82 11
114 -14 26 -26 24 -56 -8z m-77 -87 c15 -13 26 -27 22 -30 -8 -8 -72 27 -77
42 -6 20 25 14 55 -12z"/>
<path d="M520 1587 c0 -51 21 -84 66 -103 79 -33 186 38 168 111 -3 14 -11 25
-16 25 -21 0 -79 -34 -89 -51 -9 -18 -13 -16 -48 21 -21 23 -47 40 -59 40 -19
0 -22 -6 -22 -43z m86 -49 c13 -25 13 -28 -1 -28 -24 0 -55 37 -55 67 0 26 0
26 21 7 12 -10 27 -31 35 -46z"/>
<path d="M2399 1590 c-35 -37 -39 -39 -48 -21 -10 17 -68 51 -89 51 -5 0 -13
-11 -16 -25 -13 -51 40 -110 104 -115 53 -5 73 1 101 29 24 24 29 38 29 75 0
40 -3 46 -22 46 -12 0 -38 -17 -59 -40z m-74 -41 c14 -17 24 -34 21 -37 -8 -8
-54 26 -66 48 -18 33 14 25 45 -11z"/>
<path d="M701 1425 c-16 -14 -33 -35 -36 -46 -7 -21 -7 -21 -28 -1 -30 26 -61
42 -86 42 -17 0 -21 -6 -21 -34 0 -45 40 -93 85 -102 66 -12 155 54 155 114 0
57 -23 65 -69 27z m-73 -78 c27 -25 28 -37 2 -37 -25 0 -70 42 -70 65 0 13 4
14 23 4 12 -6 32 -21 45 -32z"/>
<path d="M2236 1434 c-19 -50 11 -106 72 -135 55 -27 101 -20 136 22 33 39 37
99 6 99 -26 0 -72 -23 -90 -45 -12 -14 -15 -13 -27 13 -13 26 -59 62 -81 62
-5 0 -13 -7 -16 -16z m63 -50 c12 -15 21 -36 21 -48 -1 -19 -4 -18 -30 12 -29
32 -39 62 -21 62 5 0 19 -12 30 -26z"/>
<path d="M754 1265 c-13 -13 -27 -38 -30 -54 l-6 -30 -39 19 c-52 27 -99 27
-99 0 0 -30 27 -78 51 -91 96 -51 229 68 179 162 -14 25 -26 24 -56 -6z m-60
-108 l31 -22 -34 -3 c-24 -3 -40 3 -57 19 -13 12 -24 27 -24 32 0 14 50 -1 84
-26z"/>
<path d="M2190 1271 c-26 -49 3 -127 59 -156 78 -40 171 5 171 84 0 17 -6 21
-32 21 -18 0 -48 -9 -66 -20 -41 -25 -42 -25 -42 2 0 26 -46 88 -65 88 -8 0
-19 -9 -25 -19z m46 -39 c6 -10 15 -32 19 -50 9 -41 -9 -43 -30 -2 -26 49 -16
96 11 52z m118 -77 c-4 -8 -17 -15 -30 -15 -30 0 -31 8 -1 20 32 13 37 12 31
-5z"/>
<path d="M833 1114 c-9 -14 -17 -41 -17 -60 -1 -32 -3 -34 -26 -27 -32 10
-107 10 -116 0 -12 -12 25 -73 52 -88 33 -17 89 -15 120 6 57 37 82 125 48
173 -20 29 -40 28 -61 -4z m-27 -126 c32 -15 21 -28 -23 -28 -35 0 -73 22 -73
43 0 11 59 1 96 -15z"/>
<path d="M2107 1122 c-21 -23 -22 -84 -2 -122 24 -46 62 -70 112 -70 38 0 50
5 79 34 19 19 34 41 34 50 0 21 -61 31 -101 17 -44 -15 -44 -15 -45 23 0 38
-27 86 -48 86 -7 0 -20 -8 -29 -18z m47 -60 c5 -17 5 -39 2 -49 -7 -17 -8 -17
-22 1 -18 25 -19 89 -2 84 7 -3 17 -19 22 -36z m101 -82 c-3 -5 -17 -10 -31
-10 -13 0 -24 5 -24 10 0 6 14 10 31 10 17 0 28 -4 24 -10z"/>
<path d="M952 998 c-19 -41 -23 -65 -12 -92 10 -27 9 -27 -19 -21 -33 7 -107
-10 -117 -27 -4 -6 9 -26 29 -45 45 -40 99 -45 141 -12 62 49 78 148 31 194
-30 31 -39 31 -53 3z m18 -155 c10 -9 -34 -33 -60 -33 -14 0 -37 8 -50 17
l-24 17 24 7 c24 6 100 1 110 -8z"/>
<path d="M2007 1009 c-32 -19 -49 -74 -37 -120 17 -62 57 -100 113 -106 43 -5
49 -3 82 30 20 20 34 41 30 46 -10 17 -80 32 -114 25 -30 -6 -31 -6 -21 23 8
21 7 40 -2 68 -14 43 -24 49 -51 34z m23 -68 c0 -44 -8 -71 -21 -71 -10 0 -12
70 -3 94 11 29 24 17 24 -23z m74 -100 c14 -5 16 -10 7 -15 -15 -10 -61 1 -61
14 0 12 26 12 54 1z"/>
<path d="M1084 895 c-7 -27 -2 -79 11 -107 6 -15 2 -18 -26 -18 -34 0 -99 -32
-99 -48 0 -15 44 -49 72 -56 116 -27 197 158 101 233 -34 28 -51 26 -59 -4z
m56 -155 c0 -17 -50 -43 -80 -42 -65 2 -60 29 7 42 56 11 73 11 73 0z"/>
<path d="M1857 900 c-33 -26 -50 -78 -41 -125 14 -75 90 -128 150 -105 32 12
64 38 64 52 0 16 -65 48 -99 48 -28 0 -32 3 -26 18 22 50 16 132 -9 132 -7 0
-25 -9 -39 -20z m33 -45 c0 -33 -28 -88 -40 -80 -14 9 -12 30 4 70 17 41 36
46 36 10z m36 -122 c39 -17 39 -17 11 -21 -28 -3 -57 12 -57 29 0 12 2 12 46
-8z"/>
<path d="M1313 870 c3 -27 13 -47 31 -61 63 -50 115 -220 116 -384 0 -64 4
-85 20 -105 l20 -25 19 24 c14 19 19 48 24 140 9 172 39 270 105 339 23 25 36
50 40 76 l5 38 -34 -8 c-43 -11 -262 -12 -313 -1 l-39 8 6 -41z m174 -5 c58 0
88 -3 82 -10 -5 -5 -57 -9 -116 -10 -96 0 -108 2 -111 18 -3 15 1 17 25 10 15
-4 69 -7 120 -8z m131 -42 c-9 -10 -32 -43 -52 -73 -35 -52 -36 -53 -36 -24 0
16 -7 39 -15 51 -17 24 -8 35 35 48 14 4 34 14 45 21 26 19 44 1 23 -23z
m-132 -57 c1 0 4 -75 6 -166 3 -91 2 -154 -2 -140 -5 14 -9 45 -9 70 -2 59
-26 173 -46 212 -8 17 -15 33 -15 35 0 4 63 -7 66 -11z"/>
</g>
</svg>
